<svg id="Layer_1" data-name="Layer 1" xmlns="http://www.w3.org/2000/svg" viewBox="0 0 342.08 342.08"><defs><style>.cls-1{fill:#3c75ba;}.cls-2{fill:#fff;}</style></defs><rect class="cls-1" x="0.02" y="0.02" width="342.05" height="342.05" rx="51.31"/><path class="cls-2" d="M89.5,268.91l0-171,171,0,0,171ZM246.25,112.12h-40.2c-13.63,12.45-12.68,26.23,1.65,37.07l-4.3,5.68,4.3-5.68c22.24,16.83,22.94,49.41.25,68.18l-9.09-11c15.61-12.91,15.15-34.55.24-45.83-17.58-13.3-21.68-31.95-11.5-48.44H149.15c-13.63,12.46-12.69,26.24,1.64,37.08l-4.3,5.68,4.3-5.68C173,166,173.73,198.62,151,217.39l-9.08-11c15.61-12.91,15.15-34.55.23-45.84-17.57-13.29-21.68-31.94-11.49-48.43h-27l0,142.52H130c-9.09-15.45-5.37-33.95,11.93-48.25l9.08,11c-14.69,12.15-15.18,26.21-2.62,37.26h38.52c-9.09-15.45-5.37-34,11.92-48.25l9.09,11c-14.7,12.15-15.18,26.21-2.63,37.27h41l0-142.52Z" transform="translate(-3.96 -12.35)"/></svg>